<?xml version="1.0" standalone="no"?>
<!DOCTYPE svg PUBLIC "-//W3C//DTD SVG 20010904//EN"
 "http://www.w3.org/TR/2001/REC-SVG-20010904/DTD/svg10.dtd">
<svg version="1.0" xmlns="http://www.w3.org/2000/svg"
 width="260.000000pt" height="260.000000pt" viewBox="0 0 260.000000 260.000000"
 preserveAspectRatio="xMidYMid meet">
<metadata>
Created by potrace 1.11, written by Peter Selinger 2001-2013
</metadata>
<g transform="translate(0.000000,260.000000) scale(0.100000,-0.100000)"
fill="#000000" stroke="none">
<path d="M1076 2514 c-497 -90 -906 -502 -991 -998 -19 -112 -19 -314 0 -431
80 -495 497 -912 999 -1000 114 -19 318 -19 432 0 373 66 706 313 884 656 92
179 130 341 130 560 0 213 -36 370 -125 547 -177 350 -511 601 -889 667 -110
19 -332 18 -440 -1z m495 -167 c198 -51 353 -140 499 -287 211 -210 319 -471
320 -771 0 -180 -57 -393 -146 -539 -286 -473 -862 -665 -1365 -455 -243 101
-487 347 -589 592 -58 139 -74 230 -74 413 1 144 4 177 27 261 48 183 134 334
271 477 173 180 366 286 598 327 125 22 336 13 459 -18z"/>
<path d="M780 1321 l0 -711 130 0 130 0 0 300 0 300 78 0 c108 0 170 -20 222
-72 56 -57 82 -94 225 -325 l122 -198 147 -3 146 -3 -126 208 c-152 251 -202
322 -271 389 l-53 51 37 6 c51 8 130 49 181 92 92 79 133 236 98 372 -36 144
-129 225 -313 275 -70 19 -111 22 -415 26 l-338 4 0 -711z m683 500 c67 -26
100 -64 117 -134 26 -100 -5 -212 -69 -254 -56 -38 -98 -45 -288 -50 l-183 -5
0 237 0 237 183 -4 c157 -4 190 -8 240 -27z"/>
</g>
</svg>
